<svg width="42" height="28" viewBox="0 0 42 28" fill="none" xmlns="http://www.w3.org/2000/svg">
<path d="M0 13.7943V26.8373L7.51406 26.7717C13.6336 26.7224 15.1594 26.6732 15.832 26.4599C18.2438 25.7217 19.6875 24.524 20.7047 22.424C21.3281 21.1279 21.3938 20.8982 21.4594 19.356C21.5906 16.5342 20.7375 14.5982 18.8672 13.3842L17.8992 12.7607L18.6047 12.2357C20.1633 11.1201 20.7703 9.5615 20.6227 6.98572C20.4586 3.75368 18.9 1.88337 15.6844 1.06306C14.4703 0.751341 13.8633 0.734934 7.18594 0.734934H0V13.7943ZM11.6484 5.47634C12.8953 5.55837 13.7156 5.70603 14.0766 5.8865C14.8641 6.29665 15.2578 7.03493 15.2578 8.10134C15.2578 9.299 14.8477 9.93884 13.732 10.4146C12.9445 10.7756 12.5836 10.8084 9.15469 10.874L5.41406 10.956V8.13415V5.32869L7.59609 5.34509C8.77734 5.34509 10.6148 5.41072 11.6484 5.47634ZM13.7156 15.7467C15.0938 16.1568 15.75 17.0756 15.75 18.6177C15.75 19.8154 15.4875 20.4881 14.7328 21.2099C13.9781 21.9318 13.0594 22.0631 8.82656 22.0631H5.41406V18.7818V15.5006H9.15469C11.9766 15.5006 13.1086 15.5662 13.7156 15.7467Z" fill="url(#paint0_linear_238_336)"/>
<path d="M26.3648 2.16233C26.2992 2.21155 26.25 2.8842 26.25 3.63889V5.00061H32.0742H37.9148L37.8656 3.55686L37.8164 2.12952L32.1398 2.0803C29.0227 2.06389 26.4305 2.0967 26.3648 2.16233Z" fill="url(#paint1_linear_238_336)"/>
<path d="M28.957 7.42872C27.4969 7.93731 26.7258 8.41309 25.643 9.44669C23.6578 11.3334 22.8047 13.7451 22.8047 17.4365C22.8211 21.5381 24.1664 24.2779 26.9883 25.9842C28.7109 27.0342 29.482 27.2147 32.4023 27.2803C34.8141 27.3295 35.1258 27.3131 36.2742 26.9357C37.7836 26.46 39.1289 25.5904 40.0969 24.4912C40.8844 23.5889 41.5898 22.2764 41.7375 21.4397L41.8359 20.9147L39.1617 20.9311H36.5039L36.0117 21.6201C35.1258 22.8506 33.3703 23.4248 31.582 23.0475C30.0562 22.7357 28.7602 21.5053 28.3664 20.0287C28.2844 19.6514 28.1695 19.2248 28.1203 19.0607C28.0383 18.7982 28.3172 18.7818 32.4352 18.7818C34.8469 18.7818 37.9969 18.7326 39.4242 18.667L42 18.5686V17.1412C42 13.8272 41.2125 11.4975 39.4734 9.62715C37.6359 7.6584 36.225 7.117 32.7305 7.01856C30.3516 6.95294 30.2203 6.96934 28.957 7.42872ZM34.3875 11.7928C34.8469 12.0061 35.4211 12.4326 35.6508 12.7443C36.0445 13.2529 36.5859 14.4834 36.5859 14.8607C36.5859 14.9428 34.7156 15.0084 32.4187 15.0084H28.2352L28.3664 14.549C28.7273 13.2857 29.5641 12.2193 30.5977 11.6779C31.4016 11.2514 33.3703 11.317 34.3875 11.7928Z" fill="url(#paint2_linear_238_336)"/>
<defs>
<linearGradient id="paint0_linear_238_336" x1="1.27812" y1="26.5422" x2="27.6464" y2="15.9322" gradientUnits="userSpaceOnUse">
<stop stop-color="#0057FF"/>
<stop offset="1" stop-color="#BD00FF"/>
</linearGradient>
<linearGradient id="paint1_linear_238_336" x1="26.9443" y1="4.96755" x2="30.4071" y2="-1.78837" gradientUnits="userSpaceOnUse">
<stop stop-color="#0057FF"/>
<stop offset="1" stop-color="#BD00FF"/>
</linearGradient>
<linearGradient id="paint2_linear_238_336" x1="23.9473" y1="27.0707" x2="46.513" y2="16.6387" gradientUnits="userSpaceOnUse">
<stop stop-color="#0057FF"/>
<stop offset="1" stop-color="#BD00FF"/>
</linearGradient>
</defs>
</svg>