<svg width="40" height="40" viewBox="0 0 40 40" fill="none" xmlns="http://www.w3.org/2000/svg">
<path d="M11.5752 0H28.3392C34.7255 0 39.9144 5.18887 39.9144 11.5752V28.3392C39.9144 31.4091 38.6949 34.3533 36.5241 36.5241C34.3533 38.6949 31.4091 39.9144 28.3392 39.9144H11.5752C5.18887 39.9144 0 34.7255 0 28.3392V11.5752C0 8.50525 1.21952 5.56106 3.39029 3.39029C5.56106 1.21952 8.50525 0 11.5752 0ZM11.176 3.99144C9.27056 3.99144 7.44313 4.74839 6.09576 6.09576C4.74839 7.44313 3.99144 9.27056 3.99144 11.176V28.7384C3.99144 32.7098 7.20455 35.923 11.176 35.923H28.7384C30.6438 35.923 32.4713 35.166 33.8186 33.8186C35.166 32.4713 35.923 30.6438 35.923 28.7384V11.176C35.923 7.20455 32.7098 3.99144 28.7384 3.99144H11.176ZM30.4347 6.98502C31.0963 6.98502 31.7309 7.24785 32.1987 7.71568C32.6665 8.18352 32.9294 8.81805 32.9294 9.47967C32.9294 10.1413 32.6665 10.7758 32.1987 11.2437C31.7309 11.7115 31.0963 11.9743 30.4347 11.9743C29.7731 11.9743 29.1386 11.7115 28.6707 11.2437C28.2029 10.7758 27.9401 10.1413 27.9401 9.47967C27.9401 8.81805 28.2029 8.18352 28.6707 7.71568C29.1386 7.24785 29.7731 6.98502 30.4347 6.98502ZM19.9572 9.9786C22.6037 9.9786 25.1418 11.0299 27.0131 12.9013C28.8845 14.7726 29.9358 17.3107 29.9358 19.9572C29.9358 22.6037 28.8845 25.1418 27.0131 27.0131C25.1418 28.8845 22.6037 29.9358 19.9572 29.9358C17.3107 29.9358 14.7726 28.8845 12.9013 27.0131C11.0299 25.1418 9.9786 22.6037 9.9786 19.9572C9.9786 17.3107 11.0299 14.7726 12.9013 12.9013C14.7726 11.0299 17.3107 9.9786 19.9572 9.9786ZM19.9572 13.97C18.3693 13.97 16.8464 14.6008 15.7236 15.7236C14.6008 16.8464 13.97 18.3693 13.97 19.9572C13.97 21.5451 14.6008 23.0679 15.7236 24.1908C16.8464 25.3136 18.3693 25.9444 19.9572 25.9444C21.5451 25.9444 23.0679 25.3136 24.1908 24.1908C25.3136 23.0679 25.9444 21.5451 25.9444 19.9572C25.9444 18.3693 25.3136 16.8464 24.1908 15.7236C23.0679 14.6008 21.5451 13.97 19.9572 13.97Z" fill="url(#paint0_linear_238_330)"/>
<defs>
<linearGradient id="paint0_linear_238_330" x1="36" y1="0" x2="0" y2="36" gradientUnits="userSpaceOnUse">
<stop stop-color="#0057FF"/>
<stop offset="1" stop-color="#BD00FF"/>
</linearGradient>
</defs>
</svg>
