<svg width="40" height="41" viewBox="0 0 40 41" fill="none" xmlns="http://www.w3.org/2000/svg">
<path d="M20.0804 -0.00500488C9.10553 -0.00500488 0.160804 8.93972 0.160804 19.9146C0.160804 23.4322 1.08543 26.8493 2.81407 29.8643L0 40.196L10.5528 37.4221C13.4673 39.0101 16.7437 39.8543 20.0804 39.8543C31.0553 39.8543 40 30.9096 40 19.9347C40 14.6081 37.9296 9.60303 34.1709 5.84424C30.4121 2.06535 25.407 -0.00500488 20.0804 -0.00500488ZM20.1005 3.35178C24.5226 3.35178 28.6633 5.08042 31.799 8.2161C34.9146 11.3518 36.6432 15.5126 36.6432 19.9347C36.6432 29.0603 29.206 36.4774 20.0804 36.4774C17.1055 36.4774 14.191 35.6935 11.6583 34.1659L11.0553 33.8241L4.78392 35.4724L6.45226 29.3618L6.05025 28.7186C4.40201 26.1257 3.51759 23.0503 3.51759 19.9146C3.53769 10.789 10.9548 3.35178 20.1005 3.35178ZM13.0251 10.7086C12.7035 10.7086 12.1608 10.8292 11.6985 11.3317C11.2563 11.8342 9.94975 13.0603 9.94975 15.4925C9.94975 17.9447 11.7387 20.2965 11.9598 20.6382C12.2412 20.9799 15.4975 26.005 20.5025 28.1357C21.6884 28.6784 22.6131 28.9799 23.3367 29.201C24.5226 29.5829 25.608 29.5226 26.4724 29.402C27.4372 29.2613 29.407 28.196 29.8291 27.0302C30.2513 25.8643 30.2513 24.8794 30.1307 24.6583C29.9899 24.4573 29.6683 24.3367 29.1658 24.1156C28.6633 23.8342 26.2111 22.6282 25.7688 22.4674C25.3065 22.3066 25.0251 22.2262 24.6432 22.7086C24.3216 23.2111 23.3568 24.3367 23.0754 24.6583C22.7739 25 22.4925 25.0402 22.01 24.799C21.4874 24.5377 19.8794 24.0151 17.9899 22.3267C16.5025 21 15.5176 19.3719 15.2161 18.8694C14.9749 18.387 15.196 18.0854 15.4372 17.8643C15.6583 17.6432 15.9799 17.2814 16.1809 16.9799C16.4422 16.6985 16.5226 16.4774 16.6834 16.1558C16.8442 15.8141 16.7638 15.5327 16.6432 15.2915C16.5226 15.0704 15.5176 12.5779 15.0955 11.593C14.6935 10.6282 14.2915 10.7488 13.9698 10.7287C13.6884 10.7287 13.3668 10.7086 13.0251 10.7086Z" fill="url(#paint0_linear_238_320)"/>
<defs>
<linearGradient id="paint0_linear_238_320" x1="50.5263" y1="-4.74185" x2="-11.0526" y2="48.9424" gradientUnits="userSpaceOnUse">
<stop stop-color="#BD00FF"/>
<stop offset="1" stop-color="#0057FF"/>
</linearGradient>
</defs>
</svg>
