<svg width="41" height="40" viewBox="0 0 41 40" fill="none" xmlns="http://www.w3.org/2000/svg">
<path id="Vector" d="M20.2264 0.114258C17.6055 0.114258 15.0104 0.630466 12.5891 1.63341C10.1678 2.63635 7.96769 4.10639 6.11449 5.95959C2.37179 9.70229 0.269165 14.7785 0.269165 20.0715C0.269165 28.8925 5.99688 36.3765 13.9199 39.0308C14.9177 39.1904 15.2371 38.5718 15.2371 38.0329C15.2371 37.5739 15.2371 36.3166 15.2371 34.6602C9.70892 35.8576 8.53144 31.9859 8.53144 31.9859C7.61341 29.6709 6.3162 29.0522 6.3162 29.0522C4.50009 27.8148 6.4559 27.8548 6.4559 27.8548C8.45162 27.9945 9.50935 29.9104 9.50935 29.9104C11.2456 32.9438 14.1793 32.0458 15.3169 31.5668C15.4965 30.2696 16.0154 29.3915 16.5742 28.8925C12.1437 28.3936 7.49367 26.6773 7.49367 19.0736C7.49367 16.8583 8.25204 15.0822 9.54926 13.6652C9.34969 13.1663 8.65119 11.0907 9.74883 8.39649C9.74883 8.39649 11.4252 7.85765 15.2371 10.4321C16.8137 9.99307 18.53 9.77354 20.2264 9.77354C21.9227 9.77354 23.639 9.99307 25.2157 10.4321C29.0275 7.85765 30.7039 8.39649 30.7039 8.39649C31.8015 11.0907 31.103 13.1663 30.9035 13.6652C32.2007 15.0822 32.9591 16.8583 32.9591 19.0736C32.9591 26.6972 28.2891 28.3736 23.8386 28.8726C24.5571 29.4912 25.2157 30.7086 25.2157 32.5647C25.2157 35.2389 25.2157 37.3943 25.2157 38.0329C25.2157 38.5718 25.535 39.2104 26.5528 39.0308C34.4758 36.3565 40.1836 28.8925 40.1836 20.0715C40.1836 17.4506 39.6674 14.8555 38.6644 12.4342C37.6615 10.0128 36.1914 7.81278 34.3382 5.95959C32.485 4.10639 30.285 2.63635 27.8637 1.63341C25.4423 0.630466 22.8472 0.114258 20.2264 0.114258Z" fill="white"/>
</svg>
