<svg width="41" height="41" viewBox="0 0 41 41" fill="none" xmlns="http://www.w3.org/2000/svg">
<path id="Vector" d="M11.714 0.114258H28.478C34.8643 0.114258 40.0532 5.30313 40.0532 11.6894V28.4535C40.0532 31.5234 38.8337 34.4676 36.6629 36.6384C34.4922 38.8091 31.548 40.0287 28.478 40.0287H11.714C5.3277 40.0287 0.138824 34.8398 0.138824 28.4535V11.6894C0.138824 8.6195 1.35835 5.67531 3.52911 3.50455C5.69988 1.33378 8.64407 0.114258 11.714 0.114258ZM11.3149 4.1057C9.40938 4.1057 7.58195 4.86264 6.23458 6.21002C4.88721 7.55739 4.13026 9.38482 4.13026 11.2903V28.8526C4.13026 32.8241 7.34337 36.0372 11.3149 36.0372H28.8772C30.7827 36.0372 32.6101 35.2803 33.9575 33.9329C35.3048 32.5855 36.0618 30.7581 36.0618 28.8526V11.2903C36.0618 7.31881 32.8487 4.1057 28.8772 4.1057H11.3149ZM30.5735 7.09928C31.2352 7.09928 31.8697 7.3621 32.3375 7.82994C32.8054 8.29778 33.0682 8.9323 33.0682 9.59393C33.0682 10.2555 32.8054 10.8901 32.3375 11.3579C31.8697 11.8257 31.2352 12.0886 30.5735 12.0886C29.9119 12.0886 29.2774 11.8257 28.8096 11.3579C28.3417 10.8901 28.0789 10.2555 28.0789 9.59393C28.0789 8.9323 28.3417 8.29778 28.8096 7.82994C29.2774 7.3621 29.9119 7.09928 30.5735 7.09928ZM20.096 10.0929C22.7425 10.0929 25.2806 11.1442 27.152 13.0155C29.0233 14.8869 30.0746 17.425 30.0746 20.0715C30.0746 22.7179 29.0233 25.256 27.152 27.1274C25.2806 28.9987 22.7425 30.0501 20.096 30.0501C17.4495 30.0501 14.9114 28.9987 13.0401 27.1274C11.1687 25.256 10.1174 22.7179 10.1174 20.0715C10.1174 17.425 11.1687 14.8869 13.0401 13.0155C14.9114 11.1442 17.4495 10.0929 20.096 10.0929ZM20.096 14.0843C18.5081 14.0843 16.9853 14.7151 15.8625 15.8379C14.7396 16.9607 14.1089 18.4836 14.1089 20.0715C14.1089 21.6593 14.7396 23.1822 15.8625 24.305C16.9853 25.4278 18.5081 26.0586 20.096 26.0586C21.6839 26.0586 23.2068 25.4278 24.3296 24.305C25.4524 23.1822 26.0832 21.6593 26.0832 20.0715C26.0832 18.4836 25.4524 16.9607 24.3296 15.8379C23.2068 14.7151 21.6839 14.0843 20.096 14.0843Z" fill="white"/>
</svg>
