<svg width="36" height="36" viewBox="0 0 36 36" fill="none" xmlns="http://www.w3.org/2000/svg">
<path d="M31.9315 0.0866699C32.9901 0.0866699 34.0053 0.507195 34.7539 1.25574C35.5024 2.00428 35.923 3.01951 35.923 4.07811V32.0182C35.923 33.0768 35.5024 34.092 34.7539 34.8406C34.0053 35.5891 32.9901 36.0096 31.9315 36.0096H3.99144C2.93284 36.0096 1.91761 35.5891 1.16907 34.8406C0.420525 34.092 0 33.0768 0 32.0182V4.07811C0 3.01951 0.420525 2.00428 1.16907 1.25574C1.91761 0.507195 2.93284 0.0866699 3.99144 0.0866699H31.9315ZM30.9337 31.0203V20.443C30.9337 18.7175 30.2482 17.0627 29.0281 15.8425C27.808 14.6224 26.1531 13.937 24.4276 13.937C22.7312 13.937 20.7555 14.9747 19.7975 16.5314V14.3162H14.2295V31.0203H19.7975V21.1814C19.7975 19.6447 21.0349 18.3874 22.5716 18.3874C23.3126 18.3874 24.0233 18.6818 24.5473 19.2058C25.0712 19.7297 25.3656 20.4404 25.3656 21.1814V31.0203H30.9337ZM7.74339 11.1829C8.63261 11.1829 9.48541 10.8296 10.1142 10.2009C10.743 9.57208 11.0962 8.71928 11.0962 7.83006C11.0962 5.97404 9.59941 4.4573 7.74339 4.4573C6.84888 4.4573 5.991 4.81264 5.35849 5.44516C4.72597 6.07767 4.37063 6.93555 4.37063 7.83006C4.37063 9.68608 5.88737 11.1829 7.74339 11.1829ZM10.5174 31.0203V14.3162H4.9893V31.0203H10.5174Z" fill="white"/>
</svg>
