<svg width="41" height="41" viewBox="0 0 41 41" fill="none" xmlns="http://www.w3.org/2000/svg">
<path id="Vector" d="M20.3367 0.114258C9.44005 0.114258 0.559102 8.99521 0.559102 19.8918C0.559102 23.3843 1.47713 26.7771 3.19345 29.7707L0.399445 40.0287L10.877 37.2746C13.7708 38.8512 17.0238 39.6894 20.3367 39.6894C31.2333 39.6894 40.1143 30.8084 40.1143 19.9118C40.1143 14.6231 38.0587 9.6538 34.3267 5.9218C30.5947 2.16985 25.6253 0.114258 20.3367 0.114258ZM20.3566 3.44711C24.7472 3.44711 28.8584 5.16343 31.9717 8.27675C35.0651 11.3901 36.7814 15.5212 36.7814 19.9118C36.7814 28.9724 29.3973 36.3366 20.3367 36.3366C17.383 36.3366 14.4892 35.5582 11.9746 34.0415L11.3759 33.7022L5.14926 35.3387L6.80571 29.2717L6.40656 28.6331C4.77007 26.0586 3.89195 23.0052 3.89195 19.8918C3.91191 10.8313 11.2761 3.44711 20.3566 3.44711ZM13.3317 10.7514C13.0124 10.7514 12.4735 10.8712 12.0145 11.3701C11.5755 11.869 10.2783 13.0864 10.2783 15.5013C10.2783 17.936 12.0544 20.271 12.274 20.6103C12.5534 20.9496 15.7864 25.9389 20.7558 28.0543C21.9333 28.5932 22.8513 28.8925 23.5697 29.1121C24.7472 29.4913 25.8249 29.4314 26.6831 29.3116C27.641 29.1719 29.5968 28.1142 30.0159 26.9567C30.435 25.7992 30.435 24.8213 30.3153 24.6017C30.1756 24.4022 29.8563 24.2824 29.3573 24.0629C28.8584 23.7835 26.4236 22.5861 25.9846 22.4264C25.5256 22.2667 25.2462 22.1869 24.867 22.6659C24.5477 23.1648 23.5897 24.2824 23.3103 24.6017C23.0109 24.941 22.7315 24.9809 22.2526 24.7414C21.7337 24.482 20.1371 23.9631 18.2611 22.2867C16.7843 20.9695 15.8064 19.353 15.507 18.8541C15.2676 18.3751 15.4871 18.0757 15.7266 17.8562C15.9461 17.6367 16.2654 17.2774 16.465 16.9781C16.7244 16.6987 16.8043 16.4792 16.9639 16.1598C17.1236 15.8206 17.0437 15.5412 16.924 15.3017C16.8043 15.0822 15.8064 12.6075 15.3873 11.6296C14.9882 10.6716 14.589 10.7914 14.2697 10.7714C13.9903 10.7714 13.671 10.7514 13.3317 10.7514Z" fill="white"/>
</svg>
