<svg width="32" height="30" viewBox="0 0 32 30" fill="none" xmlns="http://www.w3.org/2000/svg">
<path d="M4.73239 0L3.68612 5.47389H25.5614L24.8531 9.01389H2.99396L1.93159 14.4714H23.8068L22.5835 20.7156L13.7626 23.6819L6.1167 20.7156L6.64789 18.0278H1.27163L0 24.5833L12.6358 29.5L27.2032 24.5833L29.1348 14.7008L29.5211 12.7178L32 0H4.73239Z" fill="url(#paint0_linear_20_9)"/>
<path d="M4.73239 0L3.68612 5.47389H25.5614L24.8531 9.01389H2.99396L1.93159 14.4714H23.8068L22.5835 20.7156L13.7626 23.6819L6.1167 20.7156L6.64789 18.0278H1.27163L0 24.5833L12.6358 29.5L27.2032 24.5833L29.1348 14.7008L29.5211 12.7178L32 0H4.73239Z" fill="#0085FF"/>
<defs>
<linearGradient id="paint0_linear_20_9" x1="16" y1="-1.27532e-06" x2="-22.9304" y2="36.0953" gradientUnits="userSpaceOnUse">
<stop stop-color="#BD00FF"/>
<stop offset="1" stop-color="#0057FF"/>
</linearGradient>
</defs>
</svg>
