<svg width="26" height="30" viewBox="0 0 26 30" fill="none" xmlns="http://www.w3.org/2000/svg">
<path d="M13 24.2667L19.6721 22.3833L20.5738 12.2167H8.70492L8.40983 8.83333H20.8689L21.1967 5.51667H4.80328L5.72131 15.5333H17.0164L16.6393 19.8333L13 20.8333L9.36065 19.8333L9.13115 17.0667H5.85246L6.32787 22.3833L13 24.2667ZM0 0H26L23.6557 27L13 30L2.34426 27L0 0Z" fill="url(#paint0_linear_20_11)"/>
<path d="M13 24.2667L19.6721 22.3833L20.5738 12.2167H8.70492L8.40983 8.83333H20.8689L21.1967 5.51667H4.80328L5.72131 15.5333H17.0164L16.6393 19.8333L13 20.8333L9.36065 19.8333L9.13115 17.0667H5.85246L6.32787 22.3833L13 24.2667ZM0 0H26L23.6557 27L13 30L2.34426 27L0 0Z" fill="#FF5C00"/>
<defs>
<linearGradient id="paint0_linear_20_11" x1="1.54545" y1="31.8519" x2="29.5235" y2="-2.46201" gradientUnits="userSpaceOnUse">
<stop stop-color="#0057FF"/>
<stop offset="1" stop-color="#BD00FF"/>
</linearGradient>
</defs>
</svg>
