<svg width="29" height="29" viewBox="0 0 29 29" fill="none" xmlns="http://www.w3.org/2000/svg">
<path d="M0 0H29V29H0V0ZM7.62056 24.2311C8.265 25.6006 9.53778 26.7283 11.7128 26.7283C14.1294 26.7283 15.7889 25.4394 15.7889 22.62V13.3078H13.05V22.5556C13.05 23.9411 12.4861 24.2956 11.6 24.2956C10.6656 24.2956 10.2789 23.6511 9.84389 22.8939L7.62056 24.2311ZM17.255 23.9411C18.0606 25.52 19.6878 26.7283 22.2333 26.7283C24.8111 26.7283 26.7444 25.3911 26.7444 22.9261C26.7444 20.6544 25.4394 19.6394 23.1194 18.6406L22.4428 18.3506C21.2667 17.8511 20.7672 17.5128 20.7672 16.7072C20.7672 16.0467 21.2667 15.5311 22.0722 15.5311C22.8456 15.5311 23.3611 15.8694 23.8283 16.7072L25.9389 15.3056C25.0528 13.7589 23.7961 13.1628 22.0722 13.1628C19.6394 13.1628 18.0767 14.7094 18.0767 16.7556C18.0767 18.9789 19.3817 20.0261 21.3472 20.8639L22.0239 21.1539C23.2806 21.7017 24.0217 22.04 24.0217 22.9744C24.0217 23.7478 23.2967 24.3117 22.1689 24.3117C20.8317 24.3117 20.0583 23.6189 19.4783 22.6522L17.255 23.9411Z" fill="url(#paint0_linear_20_15)"/>
<path d="M0 0H29V29H0V0ZM7.62056 24.2311C8.265 25.6006 9.53778 26.7283 11.7128 26.7283C14.1294 26.7283 15.7889 25.4394 15.7889 22.62V13.3078H13.05V22.5556C13.05 23.9411 12.4861 24.2956 11.6 24.2956C10.6656 24.2956 10.2789 23.6511 9.84389 22.8939L7.62056 24.2311ZM17.255 23.9411C18.0606 25.52 19.6878 26.7283 22.2333 26.7283C24.8111 26.7283 26.7444 25.3911 26.7444 22.9261C26.7444 20.6544 25.4394 19.6394 23.1194 18.6406L22.4428 18.3506C21.2667 17.8511 20.7672 17.5128 20.7672 16.7072C20.7672 16.0467 21.2667 15.5311 22.0722 15.5311C22.8456 15.5311 23.3611 15.8694 23.8283 16.7072L25.9389 15.3056C25.0528 13.7589 23.7961 13.1628 22.0722 13.1628C19.6394 13.1628 18.0767 14.7094 18.0767 16.7556C18.0767 18.9789 19.3817 20.0261 21.3472 20.8639L22.0239 21.1539C23.2806 21.7017 24.0217 22.04 24.0217 22.9744C24.0217 23.7478 23.2967 24.3117 22.1689 24.3117C20.8317 24.3117 20.0583 23.6189 19.4783 22.6522L17.255 23.9411Z" fill="#FFC700"/>
<defs>
<linearGradient id="paint0_linear_20_15" x1="14.5" y1="0" x2="-10.1571" y2="32.8824" gradientUnits="userSpaceOnUse">
<stop stop-color="#BD00FF"/>
<stop offset="1" stop-color="#0057FF"/>
</linearGradient>
</defs>
</svg>
