<svg width="39" height="36" viewBox="0 0 39 36" fill="none" xmlns="http://www.w3.org/2000/svg">
<path d="M19.5 14.123C21.3684 14.123 22.8921 15.6583 22.8921 17.5775C22.8921 19.4052 21.3684 20.9588 19.5 20.9588C17.6316 20.9588 16.1079 19.4052 16.1079 17.5775C16.1079 15.6583 17.6316 14.123 19.5 14.123ZM11.1014 32.1994C12.2442 32.8939 14.7474 31.8339 17.6316 29.0922C16.6884 28.0139 15.7633 26.8441 14.8926 25.6195C13.4051 25.4733 11.9358 25.254 10.5391 24.9615C9.61395 28.8729 9.9586 31.5597 11.1014 32.1994ZM12.3893 21.7082L11.8633 20.776C11.6637 21.3061 11.4642 21.8361 11.3372 22.3479C11.827 22.4575 12.3712 22.5489 12.9335 22.6403C12.7521 22.3296 12.5707 22.0189 12.3893 21.7082ZM24.2526 20.3191L25.7219 17.5775L24.2526 14.8358C23.7084 13.8671 23.1279 13.0081 22.6019 12.1491C21.6223 12.0942 20.5884 12.0942 19.5 12.0942C18.4116 12.0942 17.3777 12.0942 16.3981 12.1491C15.8721 13.0081 15.2916 13.8671 14.7474 14.8358L13.2781 17.5775L14.7474 20.3191C15.2916 21.2878 15.8721 22.1468 16.3981 23.0059C17.3777 23.0607 18.4116 23.0607 19.5 23.0607C20.5884 23.0607 21.6223 23.0607 22.6019 23.0059C23.1279 22.1468 23.7084 21.2878 24.2526 20.3191ZM19.5 8.03665C19.1553 8.43875 18.7926 8.85913 18.4298 9.35262C18.7926 9.35262 19.1372 9.35262 19.5 9.35262C19.8628 9.35262 20.2074 9.35262 20.5702 9.35262C20.2074 8.85913 19.8447 8.43875 19.5 8.03665ZM19.5 27.1183C19.8447 26.7162 20.2074 26.2958 20.5702 25.8023C20.2074 25.8023 19.8628 25.8023 19.5 25.8023C19.1372 25.8023 18.7926 25.8023 18.4298 25.8023C18.7926 26.2958 19.1553 26.7162 19.5 27.1183ZM27.8805 2.95552C26.7558 2.26098 24.2526 3.32107 21.3684 6.06268C22.3116 7.14105 23.2367 8.31081 24.1074 9.53539C25.5949 9.68161 27.0642 9.90094 28.4609 10.1934C29.386 6.28201 29.0414 3.59523 27.8805 2.95552ZM26.6107 13.4468L27.1367 14.3789C27.3363 13.8489 27.5358 13.3188 27.6628 12.8071C27.173 12.6974 26.6288 12.606 26.0665 12.5146C26.2479 12.8253 26.4293 13.136 26.6107 13.4468ZM29.2409 0.561177C31.9074 2.09648 32.1977 6.13579 31.073 10.8514C35.6805 12.2222 39 14.4886 39 17.5775C39 20.6663 35.6805 22.9328 31.073 24.3036C32.1977 29.0191 31.9074 33.0584 29.2409 34.5937C26.5926 36.1291 22.9828 34.3744 19.5 31.0297C16.0172 34.3744 12.4074 36.1291 9.74093 34.5937C7.09256 33.0584 6.80233 29.0191 7.92698 24.3036C3.31953 22.9328 0 20.6663 0 17.5775C0 14.4886 3.31953 12.2222 7.92698 10.8514C6.80233 6.13579 7.09256 2.09648 9.74093 0.561177C12.4074 -0.974127 16.0172 0.780506 19.5 4.12528C22.9828 0.780506 26.5926 -0.974127 29.2409 0.561177ZM28.7149 17.5775C29.3316 18.9483 29.8758 20.3191 30.3293 21.7082C34.1386 20.5567 36.2791 18.9117 36.2791 17.5775C36.2791 16.2432 34.1386 14.5982 30.3293 13.4468C29.8758 14.8358 29.3316 16.2067 28.7149 17.5775ZM10.2851 17.5775C9.66837 16.2067 9.12419 14.8358 8.6707 13.4468C4.8614 14.5982 2.72093 16.2432 2.72093 17.5775C2.72093 18.9117 4.8614 20.5567 8.6707 21.7082C9.12419 20.3191 9.66837 18.9483 10.2851 17.5775ZM26.6107 21.7082C26.4293 22.0189 26.2479 22.3296 26.0665 22.6403C26.6288 22.5489 27.173 22.4575 27.6628 22.3479C27.5358 21.8361 27.3363 21.3061 27.1367 20.776L26.6107 21.7082ZM21.3684 29.0922C24.2526 31.8339 26.7558 32.8939 27.8805 32.1994C29.0414 31.5597 29.386 28.8729 28.4609 24.9615C27.0642 25.254 25.5949 25.4733 24.1074 25.6195C23.2367 26.8441 22.3116 28.0139 21.3684 29.0922ZM12.3893 13.4468C12.5707 13.136 12.7521 12.8253 12.9335 12.5146C12.3712 12.606 11.827 12.6974 11.3372 12.8071C11.4642 13.3188 11.6637 13.8489 11.8633 14.3789L12.3893 13.4468ZM17.6316 6.06268C14.7474 3.32107 12.2442 2.26098 11.1014 2.95552C9.9586 3.59523 9.61395 6.28201 10.5391 10.1934C11.9358 9.90094 13.4051 9.68161 14.8926 9.53539C15.7633 8.31081 16.6884 7.14105 17.6316 6.06268Z" fill="url(#paint0_linear_20_13)"/>
<path d="M19.5 14.123C21.3684 14.123 22.8921 15.6583 22.8921 17.5775C22.8921 19.4052 21.3684 20.9588 19.5 20.9588C17.6316 20.9588 16.1079 19.4052 16.1079 17.5775C16.1079 15.6583 17.6316 14.123 19.5 14.123ZM11.1014 32.1994C12.2442 32.8939 14.7474 31.8339 17.6316 29.0922C16.6884 28.0139 15.7633 26.8441 14.8926 25.6195C13.4051 25.4733 11.9358 25.254 10.5391 24.9615C9.61395 28.8729 9.9586 31.5597 11.1014 32.1994ZM12.3893 21.7082L11.8633 20.776C11.6637 21.3061 11.4642 21.8361 11.3372 22.3479C11.827 22.4575 12.3712 22.5489 12.9335 22.6403C12.7521 22.3296 12.5707 22.0189 12.3893 21.7082ZM24.2526 20.3191L25.7219 17.5775L24.2526 14.8358C23.7084 13.8671 23.1279 13.0081 22.6019 12.1491C21.6223 12.0942 20.5884 12.0942 19.5 12.0942C18.4116 12.0942 17.3777 12.0942 16.3981 12.1491C15.8721 13.0081 15.2916 13.8671 14.7474 14.8358L13.2781 17.5775L14.7474 20.3191C15.2916 21.2878 15.8721 22.1468 16.3981 23.0059C17.3777 23.0607 18.4116 23.0607 19.5 23.0607C20.5884 23.0607 21.6223 23.0607 22.6019 23.0059C23.1279 22.1468 23.7084 21.2878 24.2526 20.3191ZM19.5 8.03665C19.1553 8.43875 18.7926 8.85913 18.4298 9.35262C18.7926 9.35262 19.1372 9.35262 19.5 9.35262C19.8628 9.35262 20.2074 9.35262 20.5702 9.35262C20.2074 8.85913 19.8447 8.43875 19.5 8.03665ZM19.5 27.1183C19.8447 26.7162 20.2074 26.2958 20.5702 25.8023C20.2074 25.8023 19.8628 25.8023 19.5 25.8023C19.1372 25.8023 18.7926 25.8023 18.4298 25.8023C18.7926 26.2958 19.1553 26.7162 19.5 27.1183ZM27.8805 2.95552C26.7558 2.26098 24.2526 3.32107 21.3684 6.06268C22.3116 7.14105 23.2367 8.31081 24.1074 9.53539C25.5949 9.68161 27.0642 9.90094 28.4609 10.1934C29.386 6.28201 29.0414 3.59523 27.8805 2.95552ZM26.6107 13.4468L27.1367 14.3789C27.3363 13.8489 27.5358 13.3188 27.6628 12.8071C27.173 12.6974 26.6288 12.606 26.0665 12.5146C26.2479 12.8253 26.4293 13.136 26.6107 13.4468ZM29.2409 0.561177C31.9074 2.09648 32.1977 6.13579 31.073 10.8514C35.6805 12.2222 39 14.4886 39 17.5775C39 20.6663 35.6805 22.9328 31.073 24.3036C32.1977 29.0191 31.9074 33.0584 29.2409 34.5937C26.5926 36.1291 22.9828 34.3744 19.5 31.0297C16.0172 34.3744 12.4074 36.1291 9.74093 34.5937C7.09256 33.0584 6.80233 29.0191 7.92698 24.3036C3.31953 22.9328 0 20.6663 0 17.5775C0 14.4886 3.31953 12.2222 7.92698 10.8514C6.80233 6.13579 7.09256 2.09648 9.74093 0.561177C12.4074 -0.974127 16.0172 0.780506 19.5 4.12528C22.9828 0.780506 26.5926 -0.974127 29.2409 0.561177ZM28.7149 17.5775C29.3316 18.9483 29.8758 20.3191 30.3293 21.7082C34.1386 20.5567 36.2791 18.9117 36.2791 17.5775C36.2791 16.2432 34.1386 14.5982 30.3293 13.4468C29.8758 14.8358 29.3316 16.2067 28.7149 17.5775ZM10.2851 17.5775C9.66837 16.2067 9.12419 14.8358 8.6707 13.4468C4.8614 14.5982 2.72093 16.2432 2.72093 17.5775C2.72093 18.9117 4.8614 20.5567 8.6707 21.7082C9.12419 20.3191 9.66837 18.9483 10.2851 17.5775ZM26.6107 21.7082C26.4293 22.0189 26.2479 22.3296 26.0665 22.6403C26.6288 22.5489 27.173 22.4575 27.6628 22.3479C27.5358 21.8361 27.3363 21.3061 27.1367 20.776L26.6107 21.7082ZM21.3684 29.0922C24.2526 31.8339 26.7558 32.8939 27.8805 32.1994C29.0414 31.5597 29.386 28.8729 28.4609 24.9615C27.0642 25.254 25.5949 25.4733 24.1074 25.6195C23.2367 26.8441 22.3116 28.0139 21.3684 29.0922ZM12.3893 13.4468C12.5707 13.136 12.7521 12.8253 12.9335 12.5146C12.3712 12.606 11.827 12.6974 11.3372 12.8071C11.4642 13.3188 11.6637 13.8489 11.8633 14.3789L12.3893 13.4468ZM17.6316 6.06268C14.7474 3.32107 12.2442 2.26098 11.1014 2.95552C9.9586 3.59523 9.61395 6.28201 10.5391 10.1934C11.9358 9.90094 13.4051 9.68161 14.8926 9.53539C15.7633 8.31081 16.6884 7.14105 17.6316 6.06268Z" fill="#00C2FF"/>
<defs>
<linearGradient id="paint0_linear_20_13" x1="19.5" y1="0" x2="-5.26552" y2="40.7922" gradientUnits="userSpaceOnUse">
<stop stop-color="#BD00FF"/>
<stop offset="1" stop-color="#0057FF"/>
</linearGradient>
</defs>
</svg>
